<svg width="54" height="53" viewBox="0 0 54 53" fill="none" xmlns="http://www.w3.org/2000/svg">
<path fill-rule="evenodd" clip-rule="evenodd" d="M0.529297 26.5911C0.529297 11.7868 11.854 0.547485 26.6583 0.547485C41.4626 0.547485 53.4705 11.7868 53.4705 26.5911C53.4705 38.4282 46.2338 48.5574 35.5601 52.1011C34.2046 52.3466 33.7136 51.5034 33.7136 50.8096C33.7136 50.5205 33.7171 49.8412 33.7218 48.9314L33.7218 48.9295L33.7218 48.9258L33.7218 48.919C33.7313 47.0745 33.7456 44.2899 33.7456 41.8864C33.7456 39.3781 32.9131 37.7771 31.9311 36.9339C37.8977 36.2614 44.1844 35.4396 44.1844 25.1395C44.1844 22.2149 43.1384 20.742 41.4306 18.8527C41.7081 18.159 42.6154 15.3091 41.1531 11.6054C38.9223 10.9009 33.7883 14.4872 33.7883 14.4872C31.6536 13.8895 29.3588 13.58 27.0853 13.58C24.8118 13.58 22.517 13.8895 20.3822 14.4872C20.3822 14.4872 15.2482 10.9116 13.0174 11.6054C11.5552 15.2984 12.4624 18.159 12.7399 18.8527C11.0321 20.7313 10.2209 22.2043 10.2209 25.1395C10.2209 35.4075 16.2409 36.2721 22.2074 36.9339C21.4389 37.6383 20.7451 38.8231 20.4996 40.5309C18.9733 41.2353 15.0561 42.4201 12.7186 38.3001C11.2563 35.7598 8.59856 35.5463 8.59856 35.5463C5.98352 35.5143 8.42778 37.19 8.42778 37.19C10.1783 37.9906 11.395 41.0966 11.395 41.0966C12.9641 45.8784 20.4356 44.2773 20.4356 44.2773C20.4356 45.7296 20.449 47.7735 20.4585 49.2126C20.4637 49.9945 20.4676 50.5979 20.4676 50.8309C20.4676 51.5247 19.9873 52.3679 18.6211 52.1224C7.97949 48.5574 0.529297 38.4282 0.529297 26.5911ZM15.3764 42.1532C15.0562 42.0892 14.8427 41.8437 14.9174 41.6302C14.9921 41.4168 15.3017 41.31 15.5792 41.3847C15.8994 41.4808 16.1022 41.7263 16.0382 41.9398C15.9741 42.1532 15.6539 42.26 15.3764 42.1532ZM17.6818 42.4948C17.9914 42.4948 18.2369 42.324 18.2369 42.1106C18.2369 41.8651 17.9594 41.6943 17.6392 41.7263C17.3296 41.7263 17.0841 41.8971 17.0841 42.1106C17.0841 42.3561 17.3296 42.5268 17.6818 42.4948ZM19.6351 41.4488C19.3256 41.5235 19.1121 41.7263 19.1441 41.9718C19.1761 42.1853 19.4536 42.324 19.7739 42.2493C20.0834 42.1746 20.2969 41.9718 20.2648 41.7583C20.2328 41.5555 19.9446 41.4168 19.6351 41.4488ZM10.904 37.3608C10.7653 37.4675 10.7973 37.713 10.9787 37.9158C11.1495 38.0866 11.395 38.1613 11.5338 38.0226C11.6725 37.9158 11.6405 37.6703 11.4591 37.4675C11.2883 37.2968 11.0428 37.2221 10.904 37.3608ZM9.9968 36.9125C9.78333 36.8058 9.67659 36.635 9.75131 36.4962C9.82603 36.3895 9.9968 36.3575 10.2103 36.4215C10.4237 36.5282 10.5305 36.699 10.4558 36.8378C10.3811 36.9872 10.1676 37.0192 9.9968 36.9125ZM13.2095 40.2961C13.0387 40.4348 13.1027 40.7551 13.3482 40.9578C13.5937 41.2033 13.9033 41.2354 14.042 41.0646C14.1808 40.9258 14.1167 40.6056 13.9033 40.4028C13.6684 40.1573 13.3482 40.1253 13.2095 40.2961ZM11.9927 39.3568C11.8219 39.1113 11.8219 38.8338 11.9927 38.727C12.1635 38.5883 12.441 38.695 12.5904 38.9405C12.7612 39.186 12.7612 39.4635 12.5904 39.6023C12.4516 39.709 12.1635 39.6023 11.9927 39.3568Z" fill="black"/>
</svg>
