<svg width="60" height="60" viewBox="0 0 60 60" fill="none" xmlns="http://www.w3.org/2000/svg">
<path d="M27.2639 19.0573C28.6729 18.8447 31.1306 19.2862 31.4255 19.3679C34.2601 20.1691 36.3409 21.8531 37.6353 24.5018C37.881 25.025 37.7827 25.2049 37.242 25.3357C35.7347 25.7117 34.2437 26.1205 32.7363 26.5292C32.2939 26.66 31.9662 26.5946 31.6549 26.2022C31.2617 25.7117 30.7538 25.352 30.1803 25.0741C26.7396 23.4064 22.7254 26.4965 22.1683 29.6684C21.5948 32.9875 23.2824 35.4563 26.3955 35.767C28.4763 35.9795 30.9668 34.5407 31.5894 32.7095C29.8526 32.7095 28.1486 32.7095 26.4283 32.7095C25.5107 32.7095 25.3141 32.4479 25.6746 31.6304C26.035 30.7802 26.4774 29.9627 26.8215 29.1125C27.1164 28.4095 27.5752 28.1642 28.3453 28.1806C31.0815 28.2133 33.8013 28.1969 36.5375 28.1969C36.9307 28.1969 37.2257 28.1969 37.4223 27.7064C39.4212 22.7851 43.0913 20.0383 48.3835 19.4006C55.8876 18.485 61.3928 24.4201 59.6888 31.7612C58.6566 36.1921 55.6582 38.9552 51.4966 40.5902C50.5299 41.048 48.7767 41.4895 46.9908 41.4077C45.8931 41.3423 44.8117 41.1625 44.484 41.0807C41.6822 40.394 39.4703 38.8735 37.9793 36.3883C37.6189 35.7997 37.3895 35.1293 37.0618 34.4263C36.8488 34.7696 36.6686 35.0639 36.4884 35.3419C34.6369 38.2358 32.2448 40.2959 28.8532 41.0971C28.3125 41.2279 27.1656 41.3914 26.0842 41.4077C24.9864 41.4241 24.1017 41.1952 23.8395 41.1461C18.6784 40.0507 14.9591 35.7179 16.0896 29.554C16.8761 25.1885 19.5632 22.1801 23.5118 20.2181C24.6915 19.6295 26.0842 19.2535 27.2639 19.0573ZM42.8128 30.9928C42.8128 33.1346 44.058 34.8677 46.0897 35.5544C49.4649 36.6989 53.2333 34.2955 54.0034 30.5186C54.626 27.4775 52.365 24.6817 49.2683 24.6326C45.8439 24.5999 42.8128 27.5756 42.8128 30.9928Z" fill="#01ACD6"/>
<path d="M0 28.442C0.311306 27.6408 0.819226 27.3956 1.60568 27.4119C5.6035 27.4446 9.61771 27.4283 13.6155 27.4446C13.8613 27.4446 14.3201 27.2321 14.2873 27.7389C14.2709 28.0823 14.1562 28.4747 13.5991 28.4583C9.0934 28.442 4.57128 28.442 0 28.442Z" fill="#01ACD6"/>
<path d="M15.8274 24.7798C15.5489 25.3684 15.3686 25.8589 14.6313 25.8589C11.3872 25.8099 8.14306 25.8099 4.89892 25.7935C4.76785 25.7935 4.63677 25.7608 4.45654 25.7445C4.75146 25.0741 5.11192 24.7308 5.86561 24.7471C8.91313 24.7798 11.977 24.7635 15.0245 24.7635C15.2703 24.7471 15.4997 24.7635 15.8274 24.7798Z" fill="#01ACD6"/>
<path d="M7.06152 31.1892C7.24175 30.3717 7.58583 30.0937 8.29036 30.1101C9.89604 30.1591 11.5017 30.1264 13.1074 30.1264C13.4023 30.1264 13.73 30.0774 13.6972 30.5515C13.6809 30.9603 13.5826 31.2055 13.091 31.1892C11.1249 31.1728 9.14236 31.1892 7.06152 31.1892Z" fill="#01ACD6"/>
</svg>
