<svg xmlns="http://www.w3.org/2000/svg" xmlns:xlink="http://www.w3.org/1999/xlink" viewBox="0 0 56.716 67.716" fill="#fff" fill-rule="evenodd" stroke="#000" stroke-linecap="round" stroke-linejoin="round"><use xlink:href="#A" x="1.358" y="1.358"/><symbol id="A" overflow="visible"><g stroke="none" fill-rule="nonzero"><path d="M4.93 38.201a21.68 21.68 0 0 1 21.726-21.726 21.68 21.68 0 0 1 21.726 21.726 21.68 21.68 0 0 1-21.726 21.726A21.68 21.68 0 0 1 4.93 38.201z" fill="#ffc627"/><path d="M35.346 44.718l-8.147-16.023c-.815-1.358-2.444-1.901-3.802-1.358-1.358.815-1.901 2.444-1.358 3.802l3.531 6.518-5.975 5.975a2.96 2.96 0 0 0 0 4.074c.514.493 1.189.783 1.901.815.815 0 1.358-.272 1.901-.815l4.888-4.888 1.901 4.074c.543 1.086 1.63 1.629 2.444 1.629.543 0 .815 0 1.358-.272 1.63-.272 2.173-1.901 1.358-3.53M46.209.452c-1.629 1.086 1.086 10.32-5.431 16.023-4.074-2.716-8.962-4.345-14.122-4.345s-10.048 1.63-14.122 4.074C6.016 10.772 8.732 1.267 7.103.181 4.387-1.449-.501 8.328.042 14.302c.272 3.259 1.086 8.147 3.53 11.949C1.671 29.782.856 33.584.856 37.929.856 52.322 12.534 64 26.927 64s26.071-11.678 26.071-26.071c0-4.074-1.086-8.147-2.716-11.678 2.444-3.802 3.259-8.69 3.53-11.949 0-5.975-4.888-15.48-7.604-13.85M26.656 58.297c-11.134 0-20.096-8.962-20.096-20.368a20.05 20.05 0 0 1 20.096-20.096c11.134 0 20.368 8.962 20.368 20.096 0 11.406-9.233 20.368-20.368 20.368" fill="#232323"/></g></symbol></svg>