<svg width="18" height="18" viewBox="0 0 18 18" fill="none" xmlns="http://www.w3.org/2000/svg">
<path d="M9 17C13.4183 17 17 13.4183 17 9C17 4.58172 13.4183 1 9 1C4.58172 1 1 4.58172 1 9C1 13.4183 4.58172 17 9 17Z" stroke="#175DFD" stroke-width="1.5" stroke-miterlimit="10" stroke-linecap="round"/>
<path d="M8.9873 6.57425C9.41499 6.57425 9.76168 6.22754 9.76168 5.79985C9.76168 5.37216 9.41499 5.02545 8.9873 5.02545C8.55962 5.02545 8.21289 5.37216 8.21289 5.79985C8.21289 6.22754 8.55962 6.57425 8.9873 6.57425Z" fill="#5D8DFD"/>
<path d="M8.99922 12.9743C8.55762 12.9743 8.19922 12.6159 8.19922 12.1743V8.12947C8.19922 7.68787 8.55762 7.32947 8.99922 7.32947C9.44082 7.32947 9.79922 7.68787 9.79922 8.12947V12.1743C9.79922 12.6159 9.44082 12.9743 8.99922 12.9743Z" fill="#5D8DFD"/>
</svg>
