<svg width="60" height="60" viewBox="0 0 60 60" fill="none" xmlns="http://www.w3.org/2000/svg">
<path d="M56.1517 43.8536C55.3258 45.8251 53.594 46.7576 51.8623 47.77C45.4414 51.4733 39.0472 55.2033 32.6264 58.9332C30.788 59.9989 28.9231 60.0256 27.0847 58.9332C24.8468 57.5745 22.5821 56.269 20.3442 54.9102C20.0511 54.7237 19.5715 54.6171 19.6248 54.1909C19.6781 53.7646 20.211 53.8179 20.504 53.6846C21.1967 53.3649 21.9427 53.1518 22.5821 52.7522C23.2748 52.2992 23.8077 52.4058 24.4738 52.8321C25.9391 53.7912 27.4844 54.6438 28.9763 55.5763C29.4825 55.896 29.9088 55.896 30.4417 55.6029C37.4487 51.5266 44.4823 47.4503 51.4893 43.374C51.9688 43.0809 52.182 42.7612 52.182 42.1751C52.1553 34.0225 52.1553 25.8432 52.182 17.6906C52.182 17.1311 51.9688 16.7848 51.4893 16.4917C44.4556 12.442 37.422 8.39239 30.415 4.31609C29.9355 4.02302 29.5358 4.02302 29.0296 4.28944C21.996 8.3391 14.9624 12.3888 7.92876 16.4384C7.39591 16.7315 7.20942 17.1311 7.20942 17.7173C7.23606 25.8432 7.23606 33.9692 7.20942 42.0952C7.20942 42.6546 7.36927 43.0276 7.87548 43.2941C9.71381 44.3331 11.5521 45.3988 13.3905 46.4645C13.95 46.7842 14.5361 46.9974 15.1489 47.1039C17.1737 47.4503 18.719 46.1981 18.719 44.1466C18.7456 40.4966 18.719 36.8466 18.719 33.1966C18.719 28.7739 18.7456 24.3779 18.6923 19.9552C18.6923 19.076 18.9588 18.6498 19.8912 18.7297C20.4241 18.783 20.9569 18.7297 21.4898 18.7297C22.7686 18.7297 22.8752 18.8363 22.8752 20.0618C22.8752 22.3531 22.8752 24.6443 22.8752 26.9356C22.8752 32.4772 22.8752 38.0189 22.8752 43.5605C22.8752 43.8269 22.8752 44.0933 22.8752 44.3598C22.7686 49.7149 18.8522 52.4857 13.7102 50.8339C12.2448 50.3543 10.9127 49.6083 9.60724 48.8357C8.38169 48.1164 7.15613 47.397 5.90393 46.7043C4.17217 45.7452 3.29297 44.2798 3.29297 42.3349C3.29297 34.0491 3.29297 25.7633 3.29297 17.4508C3.29297 15.5059 4.14553 14.0406 5.87729 13.0548C12.9908 8.95188 20.0777 4.82229 27.1913 0.692705C27.6709 0.42628 28.1771 0.21314 28.6833 0C29.4026 0 30.1486 0 30.868 0C31.6139 0.399638 32.3866 0.772633 33.1059 1.19891C39.5534 4.92886 45.9743 8.68546 52.4484 12.3888C54.0469 13.3213 55.4856 14.307 56.1517 16.1454C56.1517 25.417 56.1517 34.6353 56.1517 43.8536Z" fill="#559F46"/>
<path d="M36.2766 42.2547C34.0119 42.3612 31.774 42.1215 29.6426 41.2689C26.7119 40.0966 25.1133 37.9386 24.9269 34.7681C24.8736 33.8356 25.2466 33.4626 26.1258 33.5426C26.259 33.5426 26.3922 33.5426 26.5254 33.5426C27.2447 33.5959 28.044 33.3294 28.6834 33.6758C29.3762 34.0488 29.1364 34.928 29.3762 35.5408C29.8824 36.8729 30.8681 37.6455 32.2003 37.9652C34.9444 38.6313 37.7153 38.6313 40.4594 38.0185C41.0189 37.8853 41.5251 37.6455 41.9781 37.2992C42.9105 36.6065 43.1237 35.6473 43.0438 34.555C42.9638 33.5692 42.2178 33.1696 41.4186 32.8765C39.82 32.2637 38.1415 32.0772 36.4631 31.8907C34.4915 31.651 32.52 31.4911 30.6017 30.9316C27.4312 29.9991 25.8593 28.3206 25.7261 25.6564C25.5663 22.4326 26.9783 20.0615 30.0689 18.9425C34.0652 17.4771 38.1415 17.5571 42.1113 19.0757C44.9887 20.168 46.2409 22.5392 46.5339 25.4965C46.5872 26.056 46.3208 26.3757 45.7347 26.3757C44.9087 26.3757 44.0828 26.3757 43.2569 26.3757C42.804 26.3757 42.5109 26.1626 42.431 25.683C41.9248 23.3385 40.3529 22.2461 38.0883 22.0064C36.3298 21.8199 34.5714 21.7666 32.8397 22.1129C32.1736 22.2461 31.5608 22.4859 31.028 22.8589C30.1754 23.4717 29.9889 24.3509 30.0955 25.3367C30.2021 26.2159 30.8681 26.5089 31.5875 26.7487C33.559 27.3881 35.6105 27.5746 37.6353 27.8677C39.5003 28.1341 41.3653 28.4006 43.177 29.0133C45.3617 29.7327 47.0401 30.9849 47.3598 33.436C47.7062 36.0203 47.1201 38.3116 44.9887 40.0167C43.177 41.4554 41.0456 41.9616 38.8076 42.1747C37.9284 42.3346 37.1025 42.2547 36.2766 42.2547Z" fill="#559F46"/>
</svg>
