<svg width="95" height="89" viewBox="0 0 95 89" fill="none" xmlns="http://www.w3.org/2000/svg">
<path d="M34.0329 46.8071C30.6851 43.2162 26.3654 41.0334 21.6138 41.0334C12.7585 41.0334 5.30718 48.6378 3.11136 58.9177C2.42741 62.1214 4.98314 65.1491 8.33088 65.1491H23.498" stroke="#9AB8FE" stroke-width="4" stroke-miterlimit="10" stroke-linecap="round"/>
<path d="M32.2912 31.459C32.7202 25.7193 28.3104 20.7263 22.4416 20.3067C16.5728 19.8872 11.4675 24.2 11.0385 29.9397C10.6095 35.6794 15.0193 40.6724 20.8881 41.0919C26.7569 41.5115 31.8622 37.1987 32.2912 31.459Z" stroke="#9AB8FE" stroke-width="4" stroke-miterlimit="10" stroke-linecap="round"/>
<path d="M71.8289 65.1842H87.6676C91.0153 65.1842 93.5712 62.1566 92.8872 58.9529C90.6914 48.6377 83.24 41.0686 74.3847 41.0686C69.633 41.0686 65.2774 43.2513 61.9297 46.8423" stroke="#9AB8FE" stroke-width="4" stroke-miterlimit="10" stroke-linecap="round"/>
<path d="M85.0549 31.4536C85.4839 25.714 81.0741 20.7209 75.2053 20.3014C69.3365 19.8818 64.2311 24.1946 63.8021 29.9343C63.3732 35.674 67.783 40.667 73.6518 41.0866C79.5206 41.5061 84.6259 37.1933 85.0549 31.4536Z" stroke="#9AB8FE" stroke-width="4" stroke-miterlimit="10" stroke-linecap="round"/>
<path d="M64.9908 73.2108C69.3825 73.2108 72.6942 69.2678 71.8302 65.0784C68.9865 51.63 59.2672 41.7373 47.6761 41.7373C36.085 41.7373 26.3658 51.63 23.5221 65.0784C22.6221 69.2678 25.9698 73.2108 30.3615 73.2108H64.9908Z" stroke="#175DFD" stroke-width="4" stroke-miterlimit="10" stroke-linecap="round"/>
<path d="M47.6761 41.7376C55.35 41.7376 61.571 35.6535 61.571 28.1483C61.571 20.6432 55.35 14.5591 47.6761 14.5591C40.0022 14.5591 33.7812 20.6432 33.7812 28.1483C33.7812 35.6535 40.0022 41.7376 47.6761 41.7376Z" stroke="#175DFD" stroke-width="4" stroke-miterlimit="10" stroke-linecap="round"/>
</svg>
